<svg width="104" height="22" viewBox="0 0 104 22" fill="none" xmlns="http://www.w3.org/2000/svg">
<g clip-path="url(#clip0_0_2191)">
<mask id="mask0_0_2191" style="mask-type:luminance" maskUnits="userSpaceOnUse" x="0" y="0" width="21" height="22">
<path d="M20.7273 0.63623H0V21.3635H20.7273V0.63623Z" fill="white"/>
</mask>
<g mask="url(#mask0_0_2191)">
<path fill-rule="evenodd" clip-rule="evenodd" d="M9.82002 19.2492C14.0813 19.2492 17.5358 15.7947 17.5358 11.5334C17.5358 7.27212 14.0813 3.81768 9.82002 3.81768C5.55875 3.81768 2.10429 7.27212 2.10429 11.5334C2.10429 15.7947 5.55875 19.2492 9.82002 19.2492ZM9.82002 21.3534C15.2435 21.3534 19.6401 16.9569 19.6401 11.5334C19.6401 6.10996 15.2435 1.71338 9.82002 1.71338C4.39658 1.71338 0 6.10996 0 11.5334C0 16.9569 4.39658 21.3534 9.82002 21.3534Z" fill="white"/>
<path d="M20.71 8.82368C20.2168 6.84141 19.192 5.03132 17.746 3.58853C16.3 2.14575 14.4876 1.12497 12.5043 0.63623L8.48633 12.9185L20.71 8.82368Z" fill="#EA5471"/>
</g>
</g>
<path d="M28.7647 15V6.6H32.4367C33.3487 6.6 34.1487 6.776 34.8367 7.128C35.5247 7.48 36.0607 7.968 36.4447 8.592C36.8287 9.216 37.0207 9.952 37.0207 10.8C37.0207 11.64 36.8287 12.376 36.4447 13.008C36.0607 13.632 35.5247 14.12 34.8367 14.472C34.1487 14.824 33.3487 15 32.4367 15H28.7647ZM30.3247 13.68H32.3647C32.9967 13.68 33.5407 13.56 33.9967 13.32C34.4607 13.08 34.8167 12.744 35.0647 12.312C35.3207 11.88 35.4487 11.376 35.4487 10.8C35.4487 10.216 35.3207 9.712 35.0647 9.288C34.8167 8.856 34.4607 8.52 33.9967 8.28C33.5407 8.04 32.9967 7.92 32.3647 7.92H30.3247V13.68ZM41.2828 15.12C40.6268 15.12 39.9988 15.028 39.3988 14.844C38.7988 14.652 38.3228 14.408 37.9708 14.112L38.5108 12.9C38.8468 13.164 39.2628 13.384 39.7588 13.56C40.2548 13.736 40.7628 13.824 41.2828 13.824C41.7228 13.824 42.0788 13.776 42.3508 13.68C42.6228 13.584 42.8228 13.456 42.9508 13.296C43.0788 13.128 43.1428 12.94 43.1428 12.732C43.1428 12.476 43.0508 12.272 42.8668 12.12C42.6828 11.96 42.4428 11.836 42.1468 11.748C41.8588 11.652 41.5348 11.564 41.1748 11.484C40.8228 11.404 40.4668 11.312 40.1068 11.208C39.7548 11.096 39.4308 10.956 39.1348 10.788C38.8468 10.612 38.6108 10.38 38.4268 10.092C38.2428 9.804 38.1508 9.436 38.1508 8.988C38.1508 8.532 38.2708 8.116 38.5108 7.74C38.7588 7.356 39.1308 7.052 39.6268 6.828C40.1308 6.596 40.7668 6.48 41.5348 6.48C42.0388 6.48 42.5388 6.544 43.0348 6.672C43.5308 6.8 43.9628 6.984 44.3308 7.224L43.8388 8.436C43.4628 8.212 43.0748 8.048 42.6748 7.944C42.2748 7.832 41.8908 7.776 41.5228 7.776C41.0908 7.776 40.7388 7.828 40.4668 7.932C40.2028 8.036 40.0068 8.172 39.8788 8.34C39.7588 8.508 39.6988 8.7 39.6988 8.916C39.6988 9.172 39.7868 9.38 39.9628 9.54C40.1468 9.692 40.3828 9.812 40.6708 9.9C40.9668 9.988 41.2948 10.076 41.6548 10.164C42.0148 10.244 42.3708 10.336 42.7228 10.44C43.0828 10.544 43.4068 10.68 43.6948 10.848C43.9908 11.016 44.2268 11.244 44.4028 11.532C44.5868 11.82 44.6788 12.184 44.6788 12.624C44.6788 13.072 44.5548 13.488 44.3068 13.872C44.0668 14.248 43.6948 14.552 43.1908 14.784C42.6868 15.008 42.0508 15.12 41.2828 15.12ZM50.9341 13.02L50.8501 11.172L55.2541 6.6H57.0061L53.3461 10.488L52.4821 11.436L50.9341 13.02ZM49.5421 15V6.6H51.1021V15H49.5421ZM55.3981 15L52.1821 11.172L53.2141 10.032L57.2221 15H55.3981ZM56.733 15L60.513 6.6H62.049L65.841 15H64.209L60.957 7.428H61.581L58.341 15H56.733ZM58.473 13.056L58.893 11.832H63.429L63.849 13.056H58.473ZM66.9093 15V6.6H68.1933L73.4613 13.068H72.8253V6.6H74.3733V15H73.0893L67.8213 8.532H68.4573V15H66.9093ZM76.6241 15V6.6H80.5601C81.5681 6.6 82.3361 6.8 82.8641 7.2C83.3921 7.592 83.6561 8.12 83.6561 8.784C83.6561 9.232 83.5521 9.616 83.3441 9.936C83.1361 10.248 82.8561 10.492 82.5041 10.668C82.1601 10.836 81.7841 10.92 81.3761 10.92L81.5921 10.488C82.0641 10.488 82.4881 10.576 82.8641 10.752C83.2401 10.92 83.5361 11.168 83.7521 11.496C83.9761 11.824 84.0881 12.232 84.0881 12.72C84.0881 13.44 83.8121 14 83.2601 14.4C82.7081 14.8 81.8881 15 80.8001 15H76.6241ZM78.1841 13.776H80.7041C81.2881 13.776 81.7361 13.68 82.0481 13.488C82.3601 13.296 82.5161 12.988 82.5161 12.564C82.5161 12.148 82.3601 11.844 82.0481 11.652C81.7361 11.452 81.2881 11.352 80.7041 11.352H78.0641V10.14H80.3921C80.9361 10.14 81.3521 10.044 81.6401 9.852C81.9361 9.66 82.0841 9.372 82.0841 8.988C82.0841 8.596 81.9361 8.304 81.6401 8.112C81.3521 7.92 80.9361 7.824 80.3921 7.824H78.1841V13.776ZM84.565 15L88.345 6.6H89.881L93.673 15H92.041L88.789 7.428H89.413L86.173 15H84.565ZM86.305 13.056L86.725 11.832H91.261L91.681 13.056H86.305ZM94.7413 15V6.6H96.0253L101.293 13.068H100.657V6.6H102.205V15H100.921L95.6533 8.532H96.2893V15H94.7413Z" fill="white"/>
<defs>
<clipPath id="clip0_0_2191">
<rect width="20.7273" height="20.7273" fill="white" transform="translate(0 0.63623)"/>
</clipPath>
</defs>
</svg>
