<svg width="17" height="16" viewBox="0 0 17 16" fill="none" xmlns="http://www.w3.org/2000/svg">
<path d="M11.9496 7.87715L8.15607 11.7071C7.19614 12.6815 5.90254 12.5882 5.07608 11.7486C4.23934 10.909 4.14694 9.61334 5.11714 8.63382L10.3018 3.39934C10.8665 2.82925 11.7083 2.73078 12.2576 3.28532C12.8069 3.84505 12.7042 4.68982 12.1395 5.25473L7.05241 10.4011C6.82654 10.6343 6.55961 10.5669 6.39534 10.4115C6.24647 10.2508 6.18487 9.98131 6.41074 9.74809L9.95787 6.16687C10.1375 5.9803 10.1478 5.7108 9.97327 5.53459C9.79874 5.36875 9.5318 5.37393 9.35214 5.55532L5.78961 9.15208C5.23521 9.71181 5.25574 10.5669 5.74854 11.0645C6.28241 11.6035 7.08834 11.5879 7.64274 11.0282L12.7555 5.8611C13.7514 4.86085 13.7155 3.53927 12.8428 2.65822C11.9855 1.7979 10.656 1.73571 9.66014 2.74114L4.44468 8.0119C3.14594 9.32829 3.23321 11.2148 4.41901 12.412C5.59967 13.5988 7.47334 13.6921 8.77207 12.3809L12.5913 8.53016C12.7658 8.35395 12.7658 8.03263 12.5861 7.86678C12.4167 7.68021 12.1293 7.70612 11.9496 7.87715Z" fill="#ABBED1"/>
</svg>
