<svg width="20" height="20" viewBox="0 0 20 20" fill="none" xmlns="http://www.w3.org/2000/svg">
<path d="M16.6864 18.7345H7.40605C6.27712 18.7345 5.35892 17.8163 5.35892 16.6874V7.40703C5.35892 6.2781 6.27712 5.35989 7.40605 5.35989H16.6864C17.8153 5.35989 18.7335 6.2781 18.7335 7.40703V16.6874C18.7335 17.8163 17.8153 18.7345 16.6864 18.7345ZM7.40605 6.72465C7.02979 6.72465 6.72367 7.03076 6.72367 7.40703V16.6874C6.72367 17.0636 7.02979 17.3697 7.40605 17.3697H16.6864C17.0627 17.3697 17.3688 17.0636 17.3688 16.6874V7.40703C17.3688 7.03076 17.0627 6.72465 16.6864 6.72465H7.40605ZM3.99416 13.2755H3.31178C2.93552 13.2755 2.6294 12.9694 2.6294 12.5931V3.31276C2.6294 2.9365 2.93552 2.63038 3.31178 2.63038H12.5921C12.9684 2.63038 13.2745 2.9365 13.2745 3.31276V3.96102H14.6393V3.31276C14.6393 2.18383 13.721 1.26562 12.5921 1.26562H3.31178C2.18286 1.26562 1.26465 2.18383 1.26465 3.31276V12.5931C1.26465 13.722 2.18286 14.6402 3.31178 14.6402H3.99416V13.2755Z" fill="#ABBED1"/>
</svg>
