<svg width="32" height="32" viewBox="0 0 32 32" fill="none" xmlns="http://www.w3.org/2000/svg">
<rect width="32" height="32" rx="4" fill="#F4F6F8"/>
<path fill-rule="evenodd" clip-rule="evenodd" d="M13.4166 24.7036H22.6642C23.7891 24.7036 24.7041 23.7886 24.7041 22.6637V13.4161C24.7041 12.2912 23.7891 11.3762 22.6642 11.3762H13.4166C12.2917 11.3762 11.3767 12.2912 11.3767 13.4161V22.6637C11.3767 23.7886 12.2917 24.7036 13.4166 24.7036ZM12.7366 13.4161C12.7366 13.0412 13.0417 12.7361 13.4166 12.7361H22.6642C23.0391 12.7361 23.3442 13.0412 23.3442 13.4161V22.6637C23.3442 23.0386 23.0391 23.3437 22.6642 23.3437H13.4166C13.0417 23.3437 12.7366 23.0386 12.7366 22.6637V13.4161ZM9.33678 19.2639H10.0168V20.6238H9.33678C8.21184 20.6238 7.29688 19.7088 7.29688 18.5839V9.3363C7.29688 8.21135 8.21184 7.29639 9.33678 7.29639H18.5844C19.7093 7.29639 20.6243 8.21135 20.6243 9.3363V9.98227H19.2643V9.3363C19.2643 8.96136 18.9593 8.65633 18.5844 8.65633H9.33678C8.96185 8.65633 8.65681 8.96136 8.65681 9.3363V18.5839C8.65681 18.9588 8.96185 19.2639 9.33678 19.2639ZM18.5116 14.5564C18.5116 14.2802 18.2878 14.0564 18.0116 14.0564C17.7355 14.0564 17.5116 14.2802 17.5116 14.5564V17.5378H14.5302C14.254 17.5378 14.0302 17.7617 14.0302 18.0378C14.0302 18.314 14.254 18.5378 14.5302 18.5378H17.5116V21.5193C17.5116 21.7954 17.7355 22.0193 18.0116 22.0193C18.2878 22.0193 18.5116 21.7954 18.5116 21.5193V18.5378H21.4931C21.7692 18.5378 21.9931 18.314 21.9931 18.0378C21.9931 17.7617 21.7692 17.5378 21.4931 17.5378H18.5116V14.5564Z" fill="#ABBED1"/>
</svg>
