<svg width="16" height="16" viewBox="0 0 16 16" fill="none" xmlns="http://www.w3.org/2000/svg">
<path d="M4.24967 1.33325C4.36018 1.33325 4.46616 1.37715 4.5443 1.45529C4.62244 1.53343 4.66634 1.63941 4.66634 1.74992V2.16659H11.333V1.74992C11.333 1.63941 11.3769 1.53343 11.455 1.45529C11.5332 1.37715 11.6392 1.33325 11.7497 1.33325C11.8602 1.33325 11.9662 1.37715 12.0443 1.45529C12.1224 1.53343 12.1663 1.63941 12.1663 1.74992V2.16659H12.9997C13.4417 2.16659 13.8656 2.34218 14.1782 2.65474C14.4907 2.9673 14.6663 3.39122 14.6663 3.83325V12.9999C14.6663 13.4419 14.4907 13.8659 14.1782 14.1784C13.8656 14.491 13.4417 14.6666 12.9997 14.6666H2.99967C2.55765 14.6666 2.13372 14.491 1.82116 14.1784C1.5086 13.8659 1.33301 13.4419 1.33301 12.9999V3.83325C1.33301 3.39122 1.5086 2.9673 1.82116 2.65474C2.13372 2.34218 2.55765 2.16659 2.99967 2.16659H3.83301V1.74992C3.83301 1.63941 3.87691 1.53343 3.95505 1.45529C4.03319 1.37715 4.13917 1.33325 4.24967 1.33325V1.33325ZM2.99967 2.99992C2.77866 2.99992 2.5667 3.08772 2.41042 3.244C2.25414 3.40028 2.16634 3.61224 2.16634 3.83325V12.9999C2.16634 13.2209 2.25414 13.4329 2.41042 13.5892C2.5667 13.7455 2.77866 13.8333 2.99967 13.8333H12.9997C13.2207 13.8333 13.4327 13.7455 13.5889 13.5892C13.7452 13.4329 13.833 13.2209 13.833 12.9999V3.83325C13.833 3.61224 13.7452 3.40028 13.5889 3.244C13.4327 3.08772 13.2207 2.99992 12.9997 2.99992H2.99967Z" fill="#3787EB"/>
<path d="M3.41602 4.66667C3.41602 4.55616 3.45991 4.45018 3.53805 4.37204C3.61619 4.2939 3.72218 4.25 3.83268 4.25H12.166C12.2765 4.25 12.3825 4.2939 12.4606 4.37204C12.5388 4.45018 12.5827 4.55616 12.5827 4.66667V5.5C12.5827 5.61051 12.5388 5.71649 12.4606 5.79463C12.3825 5.87277 12.2765 5.91667 12.166 5.91667H3.83268C3.72218 5.91667 3.61619 5.87277 3.53805 5.79463C3.45991 5.71649 3.41602 5.61051 3.41602 5.5V4.66667Z" fill="#3787EB"/>
</svg>
