<svg width="20" height="20" viewBox="0 0 20 20" fill="none" xmlns="http://www.w3.org/2000/svg">
<path fill-rule="evenodd" clip-rule="evenodd" d="M15.4175 5.4136H4.58254L5.15513 15.593C5.18592 16.1405 5.20647 16.4925 5.24301 16.76C5.2779 17.0154 5.31805 17.1104 5.3448 17.1582C5.44425 17.3357 5.5955 17.4787 5.77835 17.568C5.82754 17.5921 5.92467 17.6268 6.18166 17.6473C6.45076 17.6688 6.80339 17.6695 7.35166 17.6695H12.6484C13.1966 17.6695 13.5493 17.6688 13.8184 17.6473C14.0753 17.6268 14.1725 17.5921 14.2217 17.568C14.4045 17.4787 14.5558 17.3357 14.6552 17.1582C14.682 17.1104 14.7221 17.0154 14.757 16.76C14.7936 16.4925 14.8141 16.1405 14.8449 15.593L15.4175 5.4136ZM16.4839 4.2609L16.4839 4.26084H15.4823H13.3123C13.2231 3.58836 13.1468 3.20131 12.956 2.89585C12.7503 2.5664 12.453 2.304 12.1006 2.14068C11.7006 1.95532 11.2005 1.95532 10.2004 1.95532L9.79853 1.95532C8.79839 1.95532 8.29832 1.95532 7.8983 2.14068C7.54587 2.304 7.24863 2.5664 7.04286 2.89585C6.85208 3.20131 6.77576 3.58836 6.68658 4.26084H4.51769H3.51611L3.51612 4.2609H2.50799C2.18968 4.2609 1.93164 4.51894 1.93164 4.83725C1.93164 5.15556 2.18968 5.4136 2.50799 5.4136H3.58096L4.15671 15.6492C4.21649 16.712 4.24639 17.2435 4.47233 17.6468C4.67123 18.0019 4.97373 18.2879 5.33945 18.4666C5.7549 18.6695 6.28715 18.6695 7.35166 18.6695H12.6484C13.7129 18.6695 14.2451 18.6695 14.6606 18.4666C15.0263 18.2879 15.3288 18.0019 15.5277 17.6468C15.7536 17.2435 15.7835 16.712 15.8433 15.6492L16.4191 5.4136H17.493C17.8113 5.4136 18.0693 5.15556 18.0693 4.83725C18.0693 4.51894 17.8113 4.2609 17.493 4.2609H16.4839ZM12.2271 3.79527C12.2534 3.92421 12.2773 4.0745 12.3032 4.26084H7.69573C7.72156 4.0745 7.74544 3.92421 7.77177 3.79527C7.81997 3.55921 7.86264 3.47104 7.89102 3.42559C7.99391 3.26086 8.14253 3.12966 8.31875 3.048C8.36737 3.02547 8.46015 2.99407 8.70036 2.97552C8.953 2.95601 9.28305 2.95532 9.79853 2.95532L10.2004 2.95532C10.7158 2.95532 11.0459 2.95601 11.2985 2.97552C11.5387 2.99407 11.6315 3.02547 11.6801 3.048C11.8564 3.12966 12.005 3.26086 12.1079 3.42559C12.1362 3.47104 12.1789 3.55921 12.2271 3.79527ZM7.61719 7.14253C7.61719 6.86638 7.39333 6.64253 7.11719 6.64253C6.84104 6.64253 6.61719 6.86638 6.61719 7.14253V15.7877C6.61719 16.0639 6.84104 16.2877 7.11719 16.2877C7.39333 16.2877 7.61719 16.0639 7.61719 15.7877L7.61719 7.14253ZM10.5005 7.14253C10.5005 6.86638 10.2766 6.64253 10.0005 6.64253C9.72435 6.64253 9.50049 6.86638 9.50049 7.14253L9.50049 15.7877C9.50049 16.0639 9.72435 16.2877 10.0005 16.2877C10.2766 16.2877 10.5005 16.0639 10.5005 15.7877V7.14253ZM12.8813 6.64253C13.1575 6.64253 13.3813 6.86638 13.3813 7.14253V15.7877C13.3813 16.0639 13.1575 16.2877 12.8813 16.2877C12.6052 16.2877 12.3813 16.0639 12.3813 15.7877V7.14253C12.3813 6.86638 12.6052 6.64253 12.8813 6.64253Z" fill="#ABBED1"/>
</svg>
