<svg width="20" height="20" viewBox="0 0 20 20" fill="none" xmlns="http://www.w3.org/2000/svg">
<path d="M17.8131 3.70723L18.4879 3.0357C18.8222 2.69993 18.8345 2.33308 18.5312 2.02219L18.2898 1.77347C17.9865 1.4688 17.6088 1.49989 17.2807 1.82943L16.606 2.49474L17.8131 3.70723ZM10.2299 11.3117L17.2188 4.29171L16.0179 3.09166L9.02891 10.0992L8.42225 11.5666C8.35415 11.7532 8.54605 11.9583 8.73177 11.8899L10.2299 11.3117Z" fill="#ABBED1"/>
<path fill-rule="evenodd" clip-rule="evenodd" d="M14.0646 3.03979H4.5C3.39543 3.03979 2.5 3.93522 2.5 5.03979V15.8125C2.5 16.9171 3.39543 17.8125 4.5 17.8125H15.2727C16.3773 17.8125 17.2727 16.9171 17.2727 15.8125V6.09921L16.2727 7.09921V15.8125C16.2727 16.3648 15.825 16.8125 15.2727 16.8125H4.5C3.94772 16.8125 3.5 16.3648 3.5 15.8125V5.03979C3.5 4.48751 3.94771 4.03979 4.5 4.03979H13.0646L14.0646 3.03979Z" fill="#ABBED1"/>
</svg>
