<svg width="53" height="67" viewBox="0 0 53 67" fill="none" xmlns="http://www.w3.org/2000/svg">
<path d="M10.057 67H42.943C49.5757 67 53 63.5062 53 56.8279V29.156H29.8626C26.0064 29.156 24.1554 27.3009 24.1554 23.4361V0H10.057C3.45518 0 0 3.49377 0 10.203V56.8279C0 63.5062 3.45518 67 10.057 67ZM30.4488 24.6419H52.6915C52.5064 23.2197 51.4884 21.8902 49.8842 20.2515L33.0093 3.12275C31.4668 1.54592 30.0786 0.494693 28.6595 0.309183V22.8486C28.6903 24.0545 29.2765 24.6419 30.4488 24.6419ZM14.5303 42.8528C13.2037 42.8528 12.2474 41.8943 12.2474 40.6576C12.2474 39.4209 13.2037 38.4624 14.5303 38.4624H38.5623C39.8271 38.4624 40.8143 39.4209 40.8143 40.6576C40.8143 41.8943 39.8271 42.8528 38.5623 42.8528H14.5303ZM14.5303 54.4472C13.2037 54.4472 12.2474 53.4887 12.2474 52.252C12.2474 51.0152 13.2037 50.0568 14.5303 50.0568H38.5623C39.8271 50.0568 40.8143 51.0152 40.8143 52.252C40.8143 53.4887 39.8271 54.4472 38.5623 54.4472H14.5303Z" fill="#F4F6F8"/>
</svg>
