<svg width="20" height="20" viewBox="0 0 20 20" fill="none" xmlns="http://www.w3.org/2000/svg">
<rect width="20" height="20" rx="6" fill="#F4F6F8"/>
<path d="M10.3892 13.75C10.6367 13.75 10.8301 13.657 11.0686 13.4354L14.632 10.1434C14.8075 9.97946 14.875 9.78894 14.875 9.625C14.875 9.45663 14.8075 9.27054 14.632 9.10661L11.0686 5.83673C10.8076 5.59748 10.6367 5.5 10.3982 5.5C10.0382 5.5 9.78178 5.7747 9.78178 6.1203V7.69764H9.6693C6.56478 7.69764 5.125 9.66045 5.125 12.8771C5.125 13.4398 5.36796 13.7323 5.68291 13.7323C5.92138 13.7323 6.14184 13.657 6.31732 13.3335C7.02371 12.0397 8.02705 11.5657 9.6693 11.5657H9.78178V13.1519C9.78178 13.4974 10.0382 13.75 10.3892 13.75ZM10.6771 12.6069C10.6367 12.6069 10.6097 12.5803 10.6097 12.536V10.901C10.6097 10.7991 10.5647 10.7548 10.4612 10.7548H9.88527C7.82458 10.7548 6.51079 11.3973 5.97087 12.505C5.95737 12.5316 5.94387 12.5448 5.92588 12.5448C5.90788 12.5448 5.89438 12.5316 5.89438 12.5005C5.96637 10.3871 6.98771 8.50403 9.88527 8.50403H10.4612C10.5647 8.50403 10.6097 8.45972 10.6097 8.35781V6.683C10.6097 6.64313 10.6367 6.61654 10.6771 6.61654C10.7041 6.61654 10.7311 6.62983 10.7536 6.65199L13.8267 9.54082C13.8582 9.57626 13.8717 9.59842 13.8717 9.625C13.8717 9.65158 13.8627 9.67374 13.8267 9.70918L10.7491 12.5714C10.7266 12.5936 10.6996 12.6069 10.6771 12.6069Z" fill="#ABBED1"/>
</svg>
