<svg width="32" height="32" viewBox="0 0 32 32" fill="none" xmlns="http://www.w3.org/2000/svg">
<rect width="32" height="32" rx="4" fill="#F4F6F8"/>
<path d="M15.3637 18.7274L16.4578 17.619C15.614 17.5475 15.0062 17.2686 14.57 16.8324C13.3615 15.6239 13.3615 13.9148 14.5628 12.7205L16.937 10.3393C18.1455 9.1379 19.8474 9.13075 21.0559 10.3393C22.2716 11.5549 22.2573 13.2569 21.0631 14.4582L19.8474 15.6668C20.0762 16.1959 20.1549 16.8395 20.0262 17.3973L22.0714 15.3593C23.8305 13.6073 23.8377 11.1044 22.0642 9.33098C20.2836 7.55038 17.7951 7.56468 16.0359 9.32383L13.5474 11.8124C11.7882 13.5715 11.7811 16.0672 13.5545 17.8407C13.9693 18.2626 14.5414 18.5772 15.3637 18.7274ZM16.0288 12.6848L14.9347 13.7932C15.7785 13.8719 16.3863 14.1436 16.8225 14.5798C18.0382 15.7883 18.0311 17.4974 16.8297 18.6988L14.4556 21.0729C13.247 22.2814 11.5451 22.2814 10.3437 21.0729C9.12807 19.8572 9.13522 18.1625 10.3366 16.9611L11.5451 15.7454C11.3163 15.2234 11.2448 14.5798 11.3663 14.0149L9.32115 16.0601C7.562 17.8121 7.55485 20.3078 9.3283 22.0812C11.1089 23.8618 13.5974 23.8475 15.3566 22.0955L17.8451 19.5998C19.6043 17.8407 19.6114 15.345 17.838 13.5715C17.4232 13.1568 16.8583 12.8421 16.0288 12.6848Z" fill="#ABBED1"/>
</svg>
