<svg width="18" height="18" viewBox="0 0 18 18" fill="none" xmlns="http://www.w3.org/2000/svg">
<path d="M8.99662 16C12.8333 16 16 12.8317 16 9C16 5.16828 12.8265 2 8.98985 2C5.15998 2 2 5.16828 2 9C2 12.8317 5.16675 16 8.99662 16ZM8.99662 14.8573C5.89077 14.8573 3.19343 12.1073 3.19343 9C3.19343 5.89265 5.89077 3.22822 8.98985 3.22822C12.0957 3.22822 14.8435 5.89265 14.8502 9C14.857 12.1073 12.1025 14.8573 8.99662 14.8573Z" fill="#787878"/>
<path fill-rule="evenodd" clip-rule="evenodd" d="M10 9.5C10 9.77614 9.77614 10 9.5 10H5.5C5.22386 10 5 9.77614 5 9.5C5 9.22386 5.22386 9 5.5 9H9.5C9.77614 9 10 9.22386 10 9.5Z" fill="#787878"/>
<path fill-rule="evenodd" clip-rule="evenodd" d="M9.5 10C9.22386 10 9 9.77614 9 9.5L9 5.5C9 5.22386 9.22386 5 9.5 5C9.77614 5 10 5.22386 10 5.5L10 9.5C10 9.77614 9.77614 10 9.5 10Z" fill="#787878"/>
</svg>
