<svg width="160" height="43" viewBox="0 0 160 43" fill="none" xmlns="http://www.w3.org/2000/svg">
<g clip-path="url(#clip0_26_11047)">
<mask id="mask0_26_11047" style="mask-type:luminance" maskUnits="userSpaceOnUse" x="0" y="1" width="40" height="41">
<path d="M40 1.5H0V41.5H40V1.5Z" fill="white"/>
</mask>
<g mask="url(#mask0_26_11047)">
<path fill-rule="evenodd" clip-rule="evenodd" d="M18.9509 37.4201C27.1745 37.4201 33.841 30.7536 33.841 22.53C33.841 14.3065 27.1745 7.64003 18.9509 7.64003C10.7274 7.64003 4.06091 14.3065 4.06091 22.53C4.06091 30.7536 10.7274 37.4201 18.9509 37.4201ZM18.9509 41.4809C29.4172 41.4809 37.9019 32.9964 37.9019 22.53C37.9019 12.0637 29.4172 3.5791 18.9509 3.5791C8.48462 3.5791 0 12.0637 0 22.53C0 32.9964 8.48462 41.4809 18.9509 41.4809Z" fill="#1E91E3"/>
<path d="M39.9664 17.3003C39.0147 13.4749 37.037 9.98175 34.2465 7.19742C31.456 4.41311 27.9584 2.44318 24.1309 1.5L16.377 25.2026L39.9664 17.3003Z" fill="#EA5471"/>
</g>
</g>
<path d="M48.6012 27.5V14.9H54.1092C55.4772 14.9 56.6772 15.164 57.7092 15.692C58.7412 16.22 59.5452 16.952 60.1212 17.888C60.6972 18.824 60.9852 19.928 60.9852 21.2C60.9852 22.46 60.6972 23.564 60.1212 24.512C59.5452 25.448 58.7412 26.18 57.7092 26.708C56.6772 27.236 55.4772 27.5 54.1092 27.5H48.6012ZM50.9412 25.52H54.0012C54.9492 25.52 55.7652 25.34 56.4492 24.98C57.1452 24.62 57.6792 24.116 58.0512 23.468C58.4352 22.82 58.6272 22.064 58.6272 21.2C58.6272 20.324 58.4352 19.568 58.0512 18.932C57.6792 18.284 57.1452 17.78 56.4492 17.42C55.7652 17.06 54.9492 16.88 54.0012 16.88H50.9412V25.52ZM67.3783 27.68C66.3943 27.68 65.4523 27.542 64.5523 27.266C63.6523 26.978 62.9383 26.612 62.4103 26.168L63.2203 24.35C63.7243 24.746 64.3483 25.076 65.0923 25.34C65.8363 25.604 66.5983 25.736 67.3783 25.736C68.0383 25.736 68.5723 25.664 68.9803 25.52C69.3883 25.376 69.6883 25.184 69.8803 24.944C70.0723 24.692 70.1683 24.41 70.1683 24.098C70.1683 23.714 70.0303 23.408 69.7543 23.18C69.4783 22.94 69.1183 22.754 68.6743 22.622C68.2423 22.478 67.7563 22.346 67.2163 22.226C66.6883 22.106 66.1543 21.968 65.6143 21.812C65.0863 21.644 64.6003 21.434 64.1563 21.182C63.7243 20.918 63.3703 20.57 63.0943 20.138C62.8183 19.706 62.6803 19.154 62.6803 18.482C62.6803 17.798 62.8603 17.174 63.2203 16.61C63.5923 16.034 64.1503 15.578 64.8943 15.242C65.6503 14.894 66.6043 14.72 67.7563 14.72C68.5123 14.72 69.2623 14.816 70.0063 15.008C70.7503 15.2 71.3983 15.476 71.9503 15.836L71.2123 17.654C70.6483 17.318 70.0663 17.072 69.4663 16.916C68.8663 16.748 68.2903 16.664 67.7383 16.664C67.0903 16.664 66.5623 16.742 66.1543 16.898C65.7583 17.054 65.4643 17.258 65.2723 17.51C65.0923 17.762 65.0023 18.05 65.0023 18.374C65.0023 18.758 65.1343 19.07 65.3983 19.31C65.6743 19.538 66.0283 19.718 66.4603 19.85C66.9043 19.982 67.3963 20.114 67.9363 20.246C68.4763 20.366 69.0103 20.504 69.5383 20.66C70.0783 20.816 70.5643 21.02 70.9963 21.272C71.4403 21.524 71.7943 21.866 72.0583 22.298C72.3343 22.73 72.4723 23.276 72.4723 23.936C72.4723 24.608 72.2863 25.232 71.9143 25.808C71.5543 26.372 70.9963 26.828 70.2403 27.176C69.4843 27.512 68.5303 27.68 67.3783 27.68ZM81.8552 24.53L81.7292 21.758L88.3352 14.9H90.9632L85.4732 20.732L84.1772 22.154L81.8552 24.53ZM79.7672 27.5V14.9H82.1072V27.5H79.7672ZM88.5512 27.5L83.7272 21.758L85.2752 20.048L91.2872 27.5H88.5512ZM90.5536 27.5L96.2236 14.9H98.5276L104.216 27.5H101.768L96.8896 16.142H97.8256L92.9656 27.5H90.5536ZM93.1636 24.584L93.7936 22.748H100.598L101.228 24.584H93.1636ZM105.818 27.5V14.9H107.744L115.646 24.602H114.692V14.9H117.014V27.5H115.088L107.186 17.798H108.14V27.5H105.818ZM120.39 27.5V14.9H126.294C127.806 14.9 128.958 15.2 129.75 15.8C130.542 16.388 130.938 17.18 130.938 18.176C130.938 18.848 130.782 19.424 130.47 19.904C130.158 20.372 129.738 20.738 129.21 21.002C128.694 21.254 128.13 21.38 127.518 21.38L127.842 20.732C128.55 20.732 129.186 20.864 129.75 21.128C130.314 21.38 130.758 21.752 131.082 22.244C131.418 22.736 131.586 23.348 131.586 24.08C131.586 25.16 131.172 26 130.344 26.6C129.516 27.2 128.286 27.5 126.654 27.5H120.39ZM122.73 25.664H126.51C127.386 25.664 128.058 25.52 128.526 25.232C128.994 24.944 129.228 24.482 129.228 23.846C129.228 23.222 128.994 22.766 128.526 22.478C128.058 22.178 127.386 22.028 126.51 22.028H122.55V20.21H126.042C126.858 20.21 127.482 20.066 127.914 19.778C128.358 19.49 128.58 19.058 128.58 18.482C128.58 17.894 128.358 17.456 127.914 17.168C127.482 16.88 126.858 16.736 126.042 16.736H122.73V25.664ZM132.302 27.5L137.972 14.9H140.276L145.964 27.5H143.516L138.638 16.142H139.574L134.714 27.5H132.302ZM134.912 24.584L135.542 22.748H142.346L142.976 24.584H134.912ZM147.566 27.5V14.9H149.492L157.394 24.602H156.44V14.9H158.762V27.5H156.836L148.934 17.798H149.888V27.5H147.566Z" fill="black"/>
<defs>
<clipPath id="clip0_26_11047">
<rect width="40" height="40" fill="white" transform="translate(0 1.5)"/>
</clipPath>
</defs>
</svg>
