<svg width="11" height="12" viewBox="0 0 11 12" fill="none" xmlns="http://www.w3.org/2000/svg">
<path d="M8.9496 6.37715L5.15607 10.2071C4.19614 11.1815 2.90254 11.0882 2.07608 10.2486C1.23934 9.409 1.14694 8.11334 2.11714 7.13382L7.3018 1.89934C7.86647 1.32925 8.70834 1.23078 9.2576 1.78532C9.80687 2.34505 9.7042 3.18982 9.13954 3.75473L4.05241 8.9011C3.82654 9.13432 3.55961 9.06695 3.39534 8.91147C3.24647 8.7508 3.18487 8.48131 3.41074 8.24809L6.95787 4.66687C7.13754 4.4803 7.1478 4.2108 6.97327 4.03459C6.79874 3.86875 6.5318 3.87393 6.35214 4.05532L2.78961 7.65208C2.23521 8.21181 2.25574 9.06695 2.74854 9.56448C3.28241 10.1035 4.08834 10.0879 4.64274 9.5282L9.75554 4.3611C10.7514 3.36085 10.7155 2.03927 9.8428 1.15822C8.98554 0.297898 7.656 0.235706 6.66014 1.24114L1.44468 6.5119C0.145943 7.82829 0.23321 9.71478 1.41901 10.912C2.59967 12.0988 4.47334 12.1921 5.77207 10.8809L9.59127 7.03016C9.7658 6.85395 9.7658 6.53263 9.58614 6.36678C9.41674 6.18021 9.12927 6.20612 8.9496 6.37715Z" fill="#ABBED1"/>
</svg>
