<svg width="16" height="16" viewBox="0 0 16 16" fill="none" xmlns="http://www.w3.org/2000/svg">
<path fill-rule="evenodd" clip-rule="evenodd" d="M2.86437 4.33097L2.86875 4.40887L3.291 11.9155C3.35078 12.9783 3.38067 13.5097 3.60662 13.9131C3.80552 14.2682 4.10802 14.5542 4.47374 14.7329C4.88919 14.9358 5.42144 14.9358 6.48595 14.9358H9.51328C10.5778 14.9358 11.11 14.9358 11.5255 14.7329C11.8912 14.5542 12.1937 14.2682 12.3926 13.9131C12.6186 13.5097 12.6484 12.9783 12.7082 11.9155L13.1305 4.40887L13.1349 4.33097H13.994C14.2486 4.33097 14.4551 4.12454 14.4551 3.86989C14.4551 3.61524 14.2486 3.40881 13.994 3.40881H10.6469C10.643 3.382 10.639 3.35606 10.635 3.33091C10.5991 3.1037 10.5612 2.9421 10.502 2.79909C10.2658 2.22889 9.77962 1.79967 9.18452 1.63603C8.92422 1.56445 8.61587 1.56445 7.99916 1.56445C7.38246 1.56445 7.07411 1.56445 6.81381 1.63603C6.21871 1.79967 5.7325 2.22889 5.49631 2.79909C5.43708 2.9421 5.39923 3.1037 5.3633 3.33091C5.35933 3.35606 5.35537 3.382 5.35142 3.40881H2.006C1.75135 3.40881 1.54492 3.61524 1.54492 3.86989C1.54492 4.12454 1.75135 4.33097 2.006 4.33097H2.86437ZM9.61998 3.33091C9.60534 3.258 9.59259 3.21668 9.57813 3.18177C9.46004 2.89667 9.21693 2.68206 8.91939 2.60024C8.8215 2.57333 8.67932 2.56445 7.99916 2.56445C7.31901 2.56445 7.17682 2.57333 7.07894 2.60024C6.78139 2.68206 6.53828 2.89667 6.42019 3.18177C6.40573 3.21668 6.39299 3.258 6.37834 3.33091L9.61998 3.33091ZM4.28942 11.8593L3.87033 4.40887H12.1289L11.7098 11.8593C11.679 12.4068 11.6585 12.7588 11.6219 13.0263C11.587 13.2817 11.5469 13.3767 11.5201 13.4245C11.4207 13.602 11.2694 13.745 11.0866 13.8343C11.0374 13.8583 10.9403 13.8931 10.6833 13.9136C10.4142 13.9351 10.0616 13.9358 9.51328 13.9358H6.48595C5.93768 13.9358 5.58505 13.9351 5.31595 13.9136C5.05896 13.8931 4.96183 13.8583 4.91264 13.8343C4.72979 13.745 4.57853 13.602 4.47909 13.4245C4.45234 13.3767 4.41219 13.2817 4.3773 13.0263C4.34075 12.7588 4.32021 12.4068 4.28942 11.8593ZM6.19336 5.71422C6.19336 5.43807 5.9695 5.21422 5.69336 5.21422C5.41722 5.21422 5.19336 5.43807 5.19336 5.71422L5.19336 12.6304C5.19336 12.9065 5.41722 13.1304 5.69336 13.1304C5.9695 13.1304 6.19336 12.9065 6.19336 12.6304V5.71422ZM8.5 5.71422C8.5 5.43807 8.27614 5.21422 8 5.21422C7.72386 5.21422 7.5 5.43807 7.5 5.71422L7.5 12.6304C7.5 12.9065 7.72386 13.1304 8 13.1304C8.27614 13.1304 8.5 12.9065 8.5 12.6304L8.5 5.71422ZM10.3047 5.21422C10.5808 5.21422 10.8047 5.43807 10.8047 5.71422V12.6304C10.8047 12.9065 10.5808 13.1304 10.3047 13.1304C10.0285 13.1304 9.80469 12.9065 9.80469 12.6304V5.71422C9.80469 5.43807 10.0285 5.21422 10.3047 5.21422Z" fill="#ABBED1"/>
</svg>
