<svg width="16" height="16" viewBox="0 0 16 16" fill="none" xmlns="http://www.w3.org/2000/svg">
<path d="M14.2505 2.96578L14.7903 2.42856C15.0577 2.15995 15.0676 1.86646 14.825 1.61775L14.6318 1.41878C14.3892 1.17504 14.0871 1.19991 13.8246 1.46355L13.2848 1.9958L14.2505 2.96578ZM8.18388 9.04935L13.7751 3.43337L12.8143 2.47333L7.22313 8.07936L6.7378 9.25329C6.68332 9.40252 6.83684 9.56668 6.98541 9.51196L8.18388 9.04935Z" fill="#ABBED1"/>
<path fill-rule="evenodd" clip-rule="evenodd" d="M11.2517 2.43164H4C2.89543 2.43164 2 3.32707 2 4.43164V12.2498C2 13.3544 2.89543 14.2498 4 14.2498H11.8182C12.9228 14.2498 13.8182 13.3544 13.8182 12.2498V4.87918L12.8182 5.87918V12.2498C12.8182 12.8021 12.3705 13.2498 11.8182 13.2498H4C3.44772 13.2498 3 12.8021 3 12.2498V4.43164C3 3.87936 3.44772 3.43164 4 3.43164H10.2517L11.2517 2.43164Z" fill="#ABBED1"/>
</svg>
