<svg width="16" height="16" viewBox="0 0 16 16" fill="none" xmlns="http://www.w3.org/2000/svg">
<path fill-rule="evenodd" clip-rule="evenodd" d="M9.22686 5.58674L8.00018 1.79756L6.7735 5.58673C6.61324 6.08179 6.15219 6.41714 5.63184 6.41714L1.65505 6.41714L4.87612 8.76597C5.29516 9.07154 5.47048 9.61174 5.31075 10.1052L4.08179 13.9014L7.29315 11.5596C7.71445 11.2524 8.28592 11.2524 8.70722 11.5596L11.9186 13.9014L10.6896 10.1052C10.5299 9.61174 10.7052 9.07154 11.1242 8.76597L14.3453 6.41714H10.3685C9.84818 6.41714 9.38713 6.08179 9.22686 5.58674ZM8.76129 1.55116C8.52233 0.813024 7.47803 0.813024 7.23907 1.55116L6.01239 5.34034C5.95897 5.50536 5.80529 5.61714 5.63184 5.61714H1.65505C0.880781 5.61714 0.558093 6.60734 1.1837 7.06353L4.40476 9.41236C4.54444 9.51422 4.60288 9.69428 4.54964 9.85875L3.32067 13.655C3.0819 14.3926 3.92674 15.0046 4.55314 14.5478L7.76451 12.206C7.90494 12.1036 8.09543 12.1036 8.23586 12.206L11.4472 14.5478C12.0736 15.0046 12.9185 14.3926 12.6797 13.655L11.4507 9.85875C11.3975 9.69428 11.4559 9.51422 11.5956 9.41236L14.8167 7.06353C15.4423 6.60734 15.1196 5.61714 14.3453 5.61714H10.3685C10.1951 5.61714 10.0414 5.50536 9.98797 5.34034L8.76129 1.55116Z" fill="#ABBED1"/>
</svg>
