<svg width="20" height="20" viewBox="0 0 20 20" fill="none" xmlns="http://www.w3.org/2000/svg">
<path d="M9.04835 1.93908C9.34705 1.0164 10.6524 1.0164 10.9511 1.93908L12.4845 6.67555C12.5513 6.88182 12.7434 7.02155 12.9602 7.02155H17.9312C18.899 7.02155 19.3024 8.2593 18.5203 8.82954L14.494 11.7656C14.3194 11.8929 14.2464 12.118 14.3129 12.3236L15.8491 17.0689C16.1476 17.9908 15.0915 18.7558 14.3085 18.1848L10.2943 15.2577C10.1188 15.1297 9.88068 15.1297 9.70514 15.2577L5.69094 18.1848C4.90794 18.7558 3.85189 17.9908 4.15036 17.0689L5.68656 12.3236C5.75312 12.118 5.68006 11.8929 5.50546 11.7656L1.47913 8.82954C0.697129 8.2593 1.10049 7.02155 2.06833 7.02155H7.03931C7.25612 7.02155 7.44823 6.88182 7.515 6.67555L9.04835 1.93908Z" fill="#3787EB"/>
</svg>
