<svg width="16" height="16" viewBox="0 0 16 16" fill="none" xmlns="http://www.w3.org/2000/svg">
<g clip-path="url(#clip0_2087_4801)">
<path d="M3.82913 8C3.82913 8.13261 3.8818 8.25979 3.97557 8.35356C4.06934 8.44732 4.19652 8.5 4.32913 8.5L7.5 8.5L7.5 11.6708C7.5 11.8035 7.55268 11.9306 7.64645 12.0244C7.74022 12.1182 7.86739 12.1708 8 12.1708C8.13261 12.1708 8.25979 12.1182 8.35355 12.0244C8.44732 11.9306 8.5 11.8035 8.5 11.6708L8.5 8.5L11.6708 8.5C11.8035 8.5 11.9306 8.44732 12.0244 8.35355C12.1182 8.25979 12.1708 8.13261 12.1708 8C12.1708 7.86739 12.1182 7.74022 12.0244 7.64645C11.9306 7.55268 11.8035 7.5 11.6708 7.5L8.5 7.5L8.5 4.32916C8.5 4.19655 8.44732 4.06937 8.35355 3.9756C8.25979 3.88184 8.13261 3.82916 8 3.82916C7.86739 3.82916 7.74021 3.88184 7.64645 3.9756C7.55268 4.06937 7.5 4.19655 7.5 4.32916L7.5 7.5L4.32913 7.5C4.19652 7.5 4.06934 7.55268 3.97557 7.64645C3.8818 7.74022 3.82913 7.86739 3.82913 8ZM-2.30463e-07 2.81819L6.75554e-07 13.1818C0.000844395 13.929 0.298031 14.6453 0.826361 15.1736C1.35469 15.702 2.07102 15.9992 2.81819 16L13.1818 16C13.929 15.9992 14.6453 15.702 15.1736 15.1736C15.702 14.6453 15.9991 13.929 16 13.1818L16 2.81819C15.9991 2.07101 15.702 1.35469 15.1736 0.826358C14.6453 0.298029 13.929 0.00084382 13.1818 2.46377e-07L2.81819 1.15239e-06C2.07102 0.000844872 1.35469 0.298031 0.82636 0.826361C0.29803 1.35469 0.000843358 2.07102 -2.30463e-07 2.81819ZM1 2.81819C1.00055 2.33614 1.19228 1.874 1.53314 1.53314C1.87399 1.19228 2.33614 1.00055 2.81819 1L13.1818 1C13.6638 1.00054 14.126 1.19227 14.4669 1.53313C14.8077 1.87399 14.9995 2.33614 15 2.81819L15 13.1818C14.9995 13.6639 14.8077 14.126 14.4669 14.4669C14.126 14.8077 13.6638 14.9995 13.1818 15L2.81819 15C2.33614 14.9995 1.874 14.8077 1.53314 14.4669C1.19228 14.126 1.00055 13.6639 1 13.1818L1 2.81819Z" fill="white"/>
</g>
<defs>
<clipPath id="clip0_2087_4801">
<rect width="16" height="16" fill="white" transform="matrix(-1 8.74228e-08 8.74228e-08 1 16 0)"/>
</clipPath>
</defs>
</svg>
