<svg width="16" height="16" viewBox="0 0 16 16" fill="none" xmlns="http://www.w3.org/2000/svg">
<path d="M4.25016 1.3335C4.36067 1.3335 4.46665 1.37739 4.54479 1.45553C4.62293 1.53368 4.66683 1.63966 4.66683 1.75016V2.16683H11.3335V1.75016C11.3335 1.63966 11.3774 1.53368 11.4555 1.45553C11.5337 1.37739 11.6397 1.3335 11.7502 1.3335C11.8607 1.3335 11.9667 1.37739 12.0448 1.45553C12.1229 1.53368 12.1668 1.63966 12.1668 1.75016V2.16683H13.0002C13.4422 2.16683 13.8661 2.34242 14.1787 2.65498C14.4912 2.96755 14.6668 3.39147 14.6668 3.8335V13.0002C14.6668 13.4422 14.4912 13.8661 14.1787 14.1787C13.8661 14.4912 13.4422 14.6668 13.0002 14.6668H3.00016C2.55814 14.6668 2.13421 14.4912 1.82165 14.1787C1.50909 13.8661 1.3335 13.4422 1.3335 13.0002V3.8335C1.3335 3.39147 1.50909 2.96755 1.82165 2.65498C2.13421 2.34242 2.55814 2.16683 3.00016 2.16683H3.8335V1.75016C3.8335 1.63966 3.87739 1.53368 3.95554 1.45553C4.03368 1.37739 4.13966 1.3335 4.25016 1.3335V1.3335ZM3.00016 3.00016C2.77915 3.00016 2.56719 3.08796 2.41091 3.24424C2.25463 3.40052 2.16683 3.61248 2.16683 3.8335V13.0002C2.16683 13.2212 2.25463 13.4331 2.41091 13.5894C2.56719 13.7457 2.77915 13.8335 3.00016 13.8335H13.0002C13.2212 13.8335 13.4331 13.7457 13.5894 13.5894C13.7457 13.4331 13.8335 13.2212 13.8335 13.0002V3.8335C13.8335 3.61248 13.7457 3.40052 13.5894 3.24424C13.4331 3.08796 13.2212 3.00016 13.0002 3.00016H3.00016Z" fill="#A6A6A6"/>
<path d="M3.41699 4.66667C3.41699 4.55616 3.46089 4.45018 3.53903 4.37204C3.61717 4.2939 3.72315 4.25 3.83366 4.25H12.167C12.2775 4.25 12.3835 4.2939 12.4616 4.37204C12.5398 4.45018 12.5837 4.55616 12.5837 4.66667V5.5C12.5837 5.61051 12.5398 5.71649 12.4616 5.79463C12.3835 5.87277 12.2775 5.91667 12.167 5.91667H3.83366C3.72315 5.91667 3.61717 5.87277 3.53903 5.79463C3.46089 5.71649 3.41699 5.61051 3.41699 5.5V4.66667Z" fill="#A6A6A6"/>
</svg>
